<svg id="Calque_1" data-name="Calque 1" xmlns="http://www.w3.org/2000/svg" viewBox="0 0 270.83 123.73"><title>Bulle_crypto_16x9_logo</title><g id="La-bulle-_-CRYPTO-_-Shape" data-name="La-bulle-+-CRYPTO-+-Shape"><g id="La-bulle-_-CRYPTO" data-name="La-bulle-+-CRYPTO"><g id="La-bulle" style="isolation:isolate"><g style="isolation:isolate"><path d="M422.49,120.11v31.78h12.7v9H411.9V120.11Z" transform="translate(-410.43 -116)" fill="#fff"/><path d="M468.12,133.14H478v27.73h-9.83v-3.08a10.28,10.28,0,0,1-8.49,3.94,13.75,13.75,0,0,1-5.57-1.11,13.34,13.34,0,0,1-4.43-3.1,14.35,14.35,0,0,1-2.95-4.71,16.1,16.1,0,0,1-1.05-5.89,15.76,15.76,0,0,1,1-5.65,14.52,14.52,0,0,1,2.87-4.67,13.27,13.27,0,0,1,10-4.33,11.33,11.33,0,0,1,8.6,3.62Zm-12.33,13.78a6.31,6.31,0,0,0,.49,2.51,6.25,6.25,0,0,0,1.32,2,5.89,5.89,0,0,0,2,1.35,6.35,6.35,0,0,0,2.51.49,6.17,6.17,0,0,0,2.46-.49,5.7,5.7,0,0,0,2-1.35,7,7,0,0,0,1.36-2,5.88,5.88,0,0,0,.51-2.43,6,6,0,0,0-.51-2.46,7,7,0,0,0-1.36-2,5.84,5.84,0,0,0-2-1.35,6.35,6.35,0,0,0-2.46-.49,6.53,6.53,0,0,0-2.51.49,6,6,0,0,0-2,1.35,6.68,6.68,0,0,0-1.32,2A5.87,5.87,0,0,0,455.79,146.92Z" transform="translate(-410.43 -116)" fill="#fff"/><path d="M526.71,116v19.89a11.49,11.49,0,0,1,8.65-3.62,13.59,13.59,0,0,1,5.65,1.16,13.39,13.39,0,0,1,4.38,3.14,14.39,14.39,0,0,1,2.84,4.65,16.44,16.44,0,0,1,0,11.48,14.35,14.35,0,0,1-3,4.71,13.91,13.91,0,0,1-4.46,3.16,13.35,13.35,0,0,1-5.54,1.16,10.32,10.32,0,0,1-8.54-3.94v3.08h-9.78V116ZM539,147.08a6.25,6.25,0,0,0-.49-2.46,6.07,6.07,0,0,0-1.35-2,6.62,6.62,0,0,0-2-1.38,6,6,0,0,0-2.49-.52,6.2,6.2,0,0,0-2.43.49,6,6,0,0,0-2,1.35,6.79,6.79,0,0,0-1.35,2,5.87,5.87,0,0,0-.52,2.46,6,6,0,0,0,.49,2.43,5.77,5.77,0,0,0,1.35,2,7,7,0,0,0,2,1.36,6.23,6.23,0,0,0,4.89,0,5.87,5.87,0,0,0,2-1.35,6.78,6.78,0,0,0,1.35-2A5.61,5.61,0,0,0,539,147.08Z" transform="translate(-410.43 -116)" fill="#fff"/><path d="M571.58,133.14v15.62q0,5.13,5,5.13t5-5.13V133.14h9.78v17.51q0,5.63-3.7,8.43t-11.06,2.81q-7.35,0-11-2.81t-3.71-8.43V133.14Z" transform="translate(-410.43 -116)" fill="#fff"/><path d="M614.72,116v44.87h-9.79V116Z" transform="translate(-410.43 -116)" fill="#fff"/><path d="M638.18,116v44.87h-9.79V116Z" transform="translate(-410.43 -116)" fill="#fff"/><path d="M660.66,148.65q0,6.33,6,6.33a5.31,5.31,0,0,0,4.81-2.6h9.46q-2.86,9.51-14.32,9.51a18.91,18.91,0,0,1-6.44-1,14.36,14.36,0,0,1-5-3,13.41,13.41,0,0,1-3.21-4.65,15.42,15.42,0,0,1-1.14-6.05,17.18,17.18,0,0,1,1.08-6.25,13.24,13.24,0,0,1,3.08-4.73,14,14,0,0,1,4.84-3,18.38,18.38,0,0,1,6.41-1,17.94,17.94,0,0,1,6.32,1,12.81,12.81,0,0,1,4.76,3.06,13.12,13.12,0,0,1,3,4.89,19.25,19.25,0,0,1,1,6.51v1ZM672.12,143a5.87,5.87,0,0,0-2-3.29,6.18,6.18,0,0,0-7.37-.06,5.43,5.43,0,0,0-1.82,3.35Z" transform="translate(-410.43 -116)" fill="#fff"/></g></g><g id="CRYPTO" style="isolation:isolate"><g style="isolation:isolate"><path d="M446.42,207.11a13.06,13.06,0,0,0-10.48-5.18,12.72,12.72,0,0,0-5.08,1,12.15,12.15,0,0,0-6.67,6.8,13.28,13.28,0,0,0-1,5.11,13.5,13.5,0,0,0,1,5.18,12.44,12.44,0,0,0,6.7,6.86,12.36,12.36,0,0,0,5,1q5.87,0,10.54-5v14.47l-1.25.44a36.14,36.14,0,0,1-5.24,1.46,25.51,25.51,0,0,1-4.8.47,24.54,24.54,0,0,1-17.18-7,25.55,25.55,0,0,1-5.46-7.92,25.38,25.38,0,0,1,0-20,24.52,24.52,0,0,1,13.32-12.91,24.5,24.5,0,0,1,9.41-1.84,26,26,0,0,1,5.52.59,33.9,33.9,0,0,1,5.71,1.84Z" transform="translate(-410.43 -116)" fill="#fff"/><path d="M496.38,238.42H481.16L469.5,220.33v18.09H457.27v-47h19a18.67,18.67,0,0,1,6.86,1.15,13.33,13.33,0,0,1,4.83,3.15,13.17,13.17,0,0,1,2.87,4.62,16,16,0,0,1,1,5.61,13.75,13.75,0,0,1-2.59,8.7,13,13,0,0,1-7.64,4.53Zm-26.88-26h2.31a8.9,8.9,0,0,0,5.55-1.5,5.77,5.77,0,0,0,0-8.61,9,9,0,0,0-5.55-1.49H469.5Z" transform="translate(-410.43 -116)" fill="#fff"/><path d="M513.72,215.84l-17.15-24.45h14.6l8.73,12.85,8.67-12.85h14.59L526,215.84v22.58H513.72Z" transform="translate(-410.43 -116)" fill="#fff"/><path d="M562.81,238.42H550.59v-47h19.46q7.92,0,12.13,4.12t4.21,11.6q0,7.48-4.21,11.6t-12.13,4.12h-7.24Zm0-25.45h4.05q6.75,0,6.74-5.86t-6.74-5.87h-4.05Z" transform="translate(-410.43 -116)" fill="#fff"/><path d="M613.83,201.74v36.68H601.61V201.74H591.56V191.39h32.31v10.35Z" transform="translate(-410.43 -116)" fill="#fff"/></g><g style="isolation:isolate"><path d="M626.12,214.9A24.24,24.24,0,0,1,641.62,192a29.94,29.94,0,0,1,21,0,24.82,24.82,0,0,1,8.26,5.27,24.21,24.21,0,0,1,5.4,7.89,25.67,25.67,0,0,1,0,19.53,24.21,24.21,0,0,1-5.4,7.89,24.82,24.82,0,0,1-8.26,5.27,29.94,29.94,0,0,1-21,0,24.31,24.31,0,0,1-15.5-22.93Zm12.79,0a12.5,12.5,0,0,0,1.06,5.18,12.92,12.92,0,0,0,7.08,6.83,13.6,13.6,0,0,0,14.4-2.71,13,13,0,0,0,2.91-4.12,13.16,13.16,0,0,0,0-10.35,12.84,12.84,0,0,0-2.91-4.12,13.69,13.69,0,0,0-14.4-2.71,12.92,12.92,0,0,0-7.08,6.83A12.45,12.45,0,0,0,638.91,214.9Z" transform="translate(-410.43 -116)" fill="#fff"/></g></g></g><path id="Shape" d="M647.13,207.11a2.58,2.58,0,0,0,2.44,2.71,6.61,6.61,0,0,1,6.25,6.94A2.58,2.58,0,0,0,661,217a11.78,11.78,0,0,0-11.14-12.37,2.59,2.59,0,0,0-2.71,2.45Z" transform="translate(-410.43 -116)" fill="#fff"/></g></svg>