<svg id="Calque_1" data-name="Calque 1" xmlns="http://www.w3.org/2000/svg" xmlns:xlink="http://www.w3.org/1999/xlink" viewBox="0 0 1080 720"><defs><linearGradient id="Dégradé_sans_nom_2" x1="235.15" y1="756.98" x2="235.15" y2="756.62" gradientTransform="matrix(2000, 0, 0, -2000, -469765, 1513965)" gradientUnits="userSpaceOnUse"><stop offset="0" stop-color="#50e3c2"/><stop offset="1" stop-color="#3fcafb"/></linearGradient></defs><title>Bulle_crypto_16x9_fond</title><rect id="Rectangle-1" width="1080" height="720" fill="url(#Dégradé_sans_nom_2)"/><rect id="Rectangle-2" x="863.46" y="72.16" width="26.54" height="206.05" fill="#fff" fill-opacity="0.2"/><rect id="Rectangle-2-2" data-name="Rectangle-2" x="801.52" y="174.74" width="26.54" height="159.18" fill="#fff" fill-opacity="0.2"/><rect id="Rectangle-2-3" data-name="Rectangle-2" x="739.58" y="198.61" width="26.54" height="185.71" fill="#fff" fill-opacity="0.2"/><rect id="Rectangle-2-4" data-name="Rectangle-2" x="677.65" y="306.5" width="26.54" height="95.51" fill="#fff" fill-opacity="0.2"/><rect id="Rectangle-2-5" data-name="Rectangle-2" x="615.71" y="266" width="26.54" height="206.75" fill="#fff" fill-opacity="0.2"/><rect id="Rectangle-2-6" data-name="Rectangle-2" x="553.77" y="336.57" width="26.54" height="229.92" fill="#fff" fill-opacity="0.2"/><rect id="Rectangle-2-7" data-name="Rectangle-2" x="491.84" y="299.42" width="26.54" height="206.05" fill="#fff" fill-opacity="0.2"/><rect id="Rectangle-2-8" data-name="Rectangle-2" x="429.9" y="409.96" width="26.54" height="95.51" fill="#fff" fill-opacity="0.2"/><rect id="Rectangle-2-9" data-name="Rectangle-2" x="367.96" y="441.8" width="26.54" height="206.05" fill="#fff" fill-opacity="0.2"/><rect id="Rectangle-2-10" data-name="Rectangle-2" x="306.03" y="472.75" width="26.54" height="117.61" fill="#fff" fill-opacity="0.2"/><rect id="Rectangle-2-11" data-name="Rectangle-2" x="991.96" y="26" width="26.54" height="151.84" fill="#fff" fill-opacity="0.2"/><rect id="Rectangle-2-12" data-name="Rectangle-2" x="930.03" y="90.75" width="26.54" height="117.61" fill="#fff" fill-opacity="0.2"/><rect id="Rectangle-2-13" data-name="Rectangle-2" x="244.09" y="492.2" width="26.54" height="95.51" fill="#fff" fill-opacity="0.2"/><rect id="Rectangle-2-14" data-name="Rectangle-2" x="129.03" y="544.75" width="26.54" height="117.61" fill="#fff" fill-opacity="0.2"/><rect id="Rectangle-2-15" data-name="Rectangle-2" x="67.09" y="564.2" width="26.54" height="95.51" fill="#fff" fill-opacity="0.2"/><rect id="Rectangle-2-16" data-name="Rectangle-2" x="191" y="447.99" width="26.54" height="168.02" fill="#fff" fill-opacity="0.2"/></svg>